<svg xmlns="http://www.w3.org/2000/svg" viewBox="0 0 520 180" width="520" height="180">
  <!-- Logo graphic (left) -->
  <g transform="translate(10, 0) scale(0.13)">
    <g transform="rotate(-45, 627, 627)">
      <path fill="#0f172a" d="M 927.400 448.765 C 925.492 450.039, 923.866 454.002, 924.470 455.906 C 925.857 460.274, 927.788 460.786, 947.339 461.971 C 964.080 462.986, 966.447 462.937, 968.589 461.534 C 973 458.644, 971.174 451.735, 965.680 450.522 C 956.552 448.506, 929.637 447.271, 927.400 448.765 M 875.500 451.018 C 859.403 453.488, 851.192 455.516, 848.901 457.589 C 845.922 460.285, 846.318 466.507, 849.607 468.662 C 851.910 470.171, 852.986 470.230, 858.857 469.172 C 862.510 468.513, 872.025 466.852, 880 465.481 C 891.629 463.482, 894.847 462.571, 896.250 460.883 C 898.698 457.938, 898.429 454.338, 895.545 451.455 C 892.654 448.563, 891.648 448.541, 875.500 451.018 M 996.103 459.807 C 994.801 462.241, 994.705 464.987, 995.860 466.808 C 996.707 468.143, 1025.477 477, 1028.966 477 C 1031.442 477, 1033.929 473.446, 1033.256 470.871 C 1032.968 469.771, 1031.769 468.239, 1030.590 467.467 C 1027.417 465.388, 1007.214 458.945, 1001.853 458.303 C 997.862 457.824, 997.051 458.037, 996.103 459.807 M 799.500 472.070 C 783.235 478.633, 769.261 485.645, 768.091 487.829 C 765.275 493.091, 768.412 500, 773.618 500 C 774.850 500, 780.278 497.944, 785.679 495.432 C 791.081 492.920, 800 489.035, 805.500 486.800 C 819.669 481.042, 823.260 476.169, 817.545 470.455 C 814.173 467.082, 811.204 467.348, 799.500 472.070 M 1053.200 481.200 C 1051.485 482.915, 1051.718 485.449, 1053.750 487.185 C 1054.713 488.008, 1060.344 491.240, 1066.265 494.367 C 1075.131 499.050, 1077.381 499.866, 1079.015 498.992 C 1081.407 497.712, 1081.588 494.731, 1079.406 492.549 C 1076.408 489.551, 1059.202 480, 1056.799 480 C 1055.480 480, 1053.860 480.540, 1053.200 481.200 M 1094.989 508.021 C 1094.394 509.132, 1094.160 510.450, 1094.469 510.949 C 1095.349 512.374, 1111.759 525, 1112.730 525 C 1114.310 525, 1115.853 522.781, 1115.292 521.318 C 1114.513 519.288, 1098.981 506, 1097.387 506 C 1096.663 506, 1095.584 506.909, 1094.989 508.021 M 722.040 513.620 C 709.413 522.341, 692.437 535.692, 689.429 539.267 C 685.507 543.927, 686.488 549.069, 691.843 551.922 C 695.379 553.806, 698.221 552.592, 707.254 545.340 C 711.789 541.700, 721.251 534.646, 728.280 529.665 C 741.048 520.618, 742.590 518.831, 742.231 513.500 C 742.043 510.706, 737.419 506.992, 734.194 507.043 C 732.558 507.069, 727.784 509.653, 722.040 513.620 M 1124.482 535.030 C 1124.132 535.596, 1126.797 539.084, 1130.405 542.780 C 1138.026 550.587, 1139.089 549.271, 1132.489 540.200 C 1128.177 534.275, 1125.869 532.785, 1124.482 535.030 M 619.760 561.558 C 604.166 565.337, 592.135 576.502, 586.956 592 C 585.132 597.458, 584.854 600.116, 585.221 608.585 C 585.596 617.263, 586.095 619.605, 588.794 625.373 C 592.497 633.286, 600.917 642.548, 607.826 646.309 C 630.791 658.808, 659.040 649.884, 670.609 626.476 C 681.814 603.804, 672.805 576.368, 650.575 565.467 C 639.500 560.036, 630.663 558.915, 619.760 561.558 M 576.500 652.395 C 574.850 653.144, 572.150 655.211, 570.500 656.988 C 566.068 661.763, 548.921 676.571, 537.526 685.466 C 504.586 711.177, 461.413 733.744, 423 745.331 C 340.358 770.259, 248.981 762.133, 170.806 722.903 C 159.424 717.191, 142.076 706.990, 133.706 701.087 C 126.573 696.056, 125.566 695.917, 130.054 700.582 C 153.759 725.222, 199.349 751.016, 243.122 764.557 C 290.879 779.329, 347.725 782.415, 397 772.909 C 462.289 760.314, 521.940 729.303, 576 679.851 C 590.395 666.683, 590.481 666.575, 590.355 661.765 C 590.167 654.594, 582.732 649.566, 576.500 652.395" stroke="none" fill-rule="evenodd"/>
      <path fill="#0f172a" fill-opacity="0.720" d="M 926.750 449.702 C 924.470 452.250, 924.518 456.518, 926.854 458.854 C 928.429 460.429, 931.185 460.836, 945.104 461.554 C 970.103 462.843, 969.251 462.964, 970.491 457.937 C 972.036 451.672, 966.305 449.854, 940.469 448.414 C 929.385 447.797, 928.371 447.892, 926.750 449.702 M 872 452.004 C 850.050 455.802, 846.984 457.121, 847.015 462.750 C 847.034 466.076, 847.798 467.331, 850.751 468.886 C 852.570 469.844, 855.450 469.599, 865.751 467.610 C 872.763 466.257, 880.750 464.849, 883.500 464.483 C 892.614 463.269, 895.611 462.150, 896.814 459.509 C 898.043 456.812, 896.920 452.205, 894.687 450.786 C 892.747 449.552, 883.208 450.064, 872 452.004 M 996.655 459.829 C 993.091 463.767, 995.517 468.159, 1002 469.503 C 1003.925 469.902, 1010.656 471.782, 1016.957 473.680 C 1026.027 476.413, 1028.892 476.915, 1030.707 476.088 C 1033.338 474.889, 1033.810 470.953, 1031.590 468.733 C 1029.986 467.129, 1019.070 463.114, 1008.020 460.065 C 998.916 457.552, 998.719 457.548, 996.655 459.829 M 806.500 469.877 C 798.214 472.869, 779.829 480.858, 774.531 483.769 C 768.430 487.122, 766.152 490.686, 767.556 494.680 C 768.101 496.228, 769.829 498.110, 771.397 498.862 C 774.031 500.124, 774.866 499.945, 782.374 496.510 C 786.843 494.465, 796.350 490.313, 803.500 487.284 C 810.650 484.255, 817.138 481.173, 817.917 480.436 C 820.336 478.147, 819.666 472.969, 816.611 470.342 C 813.380 467.563, 812.964 467.544, 806.500 469.877 M 1054.350 480.765 C 1053.217 481.489, 1052.649 483.383, 1052.882 485.661 C 1053.038 487.193, 1075.743 499.198, 1077.739 498.805 C 1080.251 498.310, 1081.591 495.417, 1080.126 493.652 C 1078.404 491.576, 1058.707 479.996, 1056.931 480.015 C 1056.144 480.024, 1054.982 480.361, 1054.350 480.765 M 732 507.731 C 729.408 508.721, 718.935 516.015, 707 525.143 C 688.418 539.354, 687.800 539.972, 687.800 544.333 C 687.800 549.272, 690.278 552, 694.763 552 C 697.432 552, 699.702 550.807, 704.756 546.750 C 708.352 543.862, 717.866 536.742, 725.897 530.928 C 735.279 524.136, 740.820 519.448, 741.394 517.818 C 742.728 514.029, 741.358 510.237, 738.035 508.518 C 734.911 506.903, 734.357 506.831, 732 507.731 M 1095.374 508.467 C 1095.065 509.274, 1094.966 510.361, 1095.156 510.882 C 1095.802 512.661, 1111.402 524, 1113.204 524 C 1116.656 524, 1114.941 521.113, 1107.313 514.083 C 1099.745 507.111, 1096.484 505.576, 1095.374 508.467 M 1125.496 535.006 C 1124.835 536.075, 1134.667 548, 1136.209 548 C 1137.292 548, 1136.878 547.244, 1131.691 539.750 C 1127.682 533.959, 1126.638 533.159, 1125.496 535.006 M 616.487 562.799 C 605.671 566.539, 594.790 575.610, 590.106 584.793 C 578.360 607.816, 587.827 636.458, 610.747 647.246 C 635.997 659.130, 666.286 645.288, 673.522 618.559 C 676.177 608.749, 675.232 596.231, 671.185 587.582 C 669.494 583.968, 666.848 579.352, 665.305 577.325 C 661.011 571.681, 651.593 565.264, 644.299 563.011 C 636.026 560.455, 623.539 560.360, 616.487 562.799 M 571.055 657.250 C 548.503 677.093, 542.132 682.406, 530.538 691.032 C 485.110 724.828, 435.292 746.257, 380.728 755.470 C 351.093 760.474, 312.023 761.300, 283.500 757.526 C 230.266 750.481, 180.228 732.240, 138.500 704.665 C 130.980 699.695, 129.993 699.256, 132.500 701.991 C 143.102 713.559, 168.086 731.074, 190.387 742.573 C 255.576 776.187, 331.372 786.276, 404 771.008 C 467.273 757.707, 529.091 724.073, 581.750 674.298 C 589.611 666.868, 590 666.295, 590 662.173 C 590 656.436, 585.896 652, 580.588 652 C 577.710 652, 575.870 653.014, 571.055 657.250" stroke="none" fill-rule="evenodd"/>
    </g>
  </g>

  <!-- DVA text (right top) -->
  <text x="195" y="105" font-family="system-ui, -apple-system, sans-serif" font-size="90" font-weight="800" fill="#0f172a" letter-spacing="8">DVA</text>

  <!-- Subtitle (right bottom) -->
  <text x="197" y="145" font-family="system-ui, -apple-system, sans-serif" font-size="20" fill="#64748b" letter-spacing="3">DIMENSIONAL VARIANCE ANALYSIS</text>
</svg>
