<svg xmlns="http://www.w3.org/2000/svg" viewBox="0 0 720 260" width="720" height="260">
  <style>
    text { font-family: -apple-system, "Segoe UI", sans-serif; }
  </style>

  <!-- 4 top metrics -->
  <g transform="translate(20, 28)">
    <text font-size="26" font-weight="800" fill="#7c3aed">-39%</text>
    <text font-size="10" fill="#64748b" y="14">代码净增 vs superpowers</text>
    <text font-size="9" fill="#94a3b8" y="26">654 行 vs 1071 行</text>
  </g>
  <g transform="translate(195, 28)">
    <text font-size="26" font-weight="800" fill="#2563eb">+22</text>
    <text font-size="10" fill="#64748b" y="14">base 遗漏的必要文件</text>
    <text font-size="9" fill="#94a3b8" y="26">dims 全部找到</text>
  </g>
  <g transform="translate(370, 28)">
    <text font-size="26" font-weight="800" fill="#059669">83.6%</text>
    <text font-size="10" fill="#64748b" y="14">God Class 缩减</text>
    <text font-size="9" fill="#94a3b8" y="26">721 → 118 行</text>
  </g>
  <g transform="translate(555, 28)">
    <text font-size="26" font-weight="800" fill="#7c3aed">6.5x</text>
    <text font-size="10" fill="#64748b" y="14">测试用例 vs base</text>
    <text font-size="9" fill="#94a3b8" y="26">98 vs ~15</text>
  </g>

  <line x1="20" y1="60" x2="700" y2="60" stroke="#e2e8f0" stroke-width="1"/>

  <!-- Helper: 5-axis radar, radius=50, center at (0,0) -->
  <!-- Axis angles (from top, clockwise): 0°, 72°, 144°, 216°, 288° -->
  <!-- Axes at (cos(θ-90°)*r, sin(θ-90°)*r): -->
  <!-- 0: (0, -50), 72: (47.55, -15.45), 144: (29.39, 40.45), 216: (-29.39, 40.45), 288: (-47.55, -15.45) -->

  <!-- base -->
  <g transform="translate(90, 160)">
    <text font-size="11" font-weight="700" fill="#94a3b8" text-anchor="middle" y="-62">base</text>
    <!-- grid -->
    <polygon points="0,-25 23.8,-7.7 14.7,20.2 -14.7,20.2 -23.8,-7.7" fill="none" stroke="#e2e8f0" stroke-width="0.6"/>
    <polygon points="0,-50 47.55,-15.45 29.39,40.45 -29.39,40.45 -47.55,-15.45" fill="none" stroke="#e2e8f0" stroke-width="0.6"/>
    <!-- axes -->
    <line x1="0" y1="0" x2="0" y2="-50" stroke="#e2e8f0" stroke-width="0.4"/>
    <line x1="0" y1="0" x2="47.55" y2="-15.45" stroke="#e2e8f0" stroke-width="0.4"/>
    <line x1="0" y1="0" x2="29.39" y2="40.45" stroke="#e2e8f0" stroke-width="0.4"/>
    <line x1="0" y1="0" x2="-29.39" y2="40.45" stroke="#e2e8f0" stroke-width="0.4"/>
    <line x1="0" y1="0" x2="-47.55" y2="-15.45" stroke="#e2e8f0" stroke-width="0.4"/>
    <!-- data: 30, 90, 10, 40, 90 -->
    <polygon points="0,-15 42.8,-13.9 2.94,4.05 -11.76,16.18 -42.8,-13.9" fill="#94a3b833" stroke="#94a3b8" stroke-width="1.5"/>
    <!-- labels -->
    <text font-size="7.5" fill="#64748b" text-anchor="middle" x="0" y="-53">完整性</text>
    <text font-size="7.5" fill="#64748b" text-anchor="start" x="50" y="-14">精简</text>
    <text font-size="7.5" fill="#64748b" text-anchor="start" x="32" y="49">测试</text>
    <text font-size="7.5" fill="#64748b" text-anchor="end" x="-32" y="49">隔离</text>
    <text font-size="7.5" fill="#64748b" text-anchor="end" x="-50" y="-14">克制</text>
  </g>

  <!-- dims -->
  <g transform="translate(270, 160)">
    <text font-size="11" font-weight="700" fill="#2563eb" text-anchor="middle" y="-62">dims</text>
    <polygon points="0,-25 23.8,-7.7 14.7,20.2 -14.7,20.2 -23.8,-7.7" fill="none" stroke="#e2e8f0" stroke-width="0.6"/>
    <polygon points="0,-50 47.55,-15.45 29.39,40.45 -29.39,40.45 -47.55,-15.45" fill="none" stroke="#e2e8f0" stroke-width="0.6"/>
    <line x1="0" y1="0" x2="0" y2="-50" stroke="#e2e8f0" stroke-width="0.4"/>
    <line x1="0" y1="0" x2="47.55" y2="-15.45" stroke="#e2e8f0" stroke-width="0.4"/>
    <line x1="0" y1="0" x2="29.39" y2="40.45" stroke="#e2e8f0" stroke-width="0.4"/>
    <line x1="0" y1="0" x2="-29.39" y2="40.45" stroke="#e2e8f0" stroke-width="0.4"/>
    <line x1="0" y1="0" x2="-47.55" y2="-15.45" stroke="#e2e8f0" stroke-width="0.4"/>
    <!-- data: 95, 40, 15, 95, 60 -->
    <polygon points="0,-47.5 19,-6.2 4.41,6.07 -27.92,38.43 -28.53,-9.27" fill="#2563eb22" stroke="#2563eb" stroke-width="1.5"/>
    <text font-size="7.5" fill="#64748b" text-anchor="middle" x="0" y="-53">完整性</text>
    <text font-size="7.5" fill="#64748b" text-anchor="start" x="50" y="-14">精简</text>
    <text font-size="7.5" fill="#64748b" text-anchor="start" x="32" y="49">测试</text>
    <text font-size="7.5" fill="#64748b" text-anchor="end" x="-32" y="49">隔离</text>
    <text font-size="7.5" fill="#64748b" text-anchor="end" x="-50" y="-14">克制</text>
  </g>

  <!-- superpowers -->
  <g transform="translate(450, 160)">
    <text font-size="11" font-weight="700" fill="#059669" text-anchor="middle" y="-62">superpowers</text>
    <polygon points="0,-25 23.8,-7.7 14.7,20.2 -14.7,20.2 -23.8,-7.7" fill="none" stroke="#e2e8f0" stroke-width="0.6"/>
    <polygon points="0,-50 47.55,-15.45 29.39,40.45 -29.39,40.45 -47.55,-15.45" fill="none" stroke="#e2e8f0" stroke-width="0.6"/>
    <line x1="0" y1="0" x2="0" y2="-50" stroke="#e2e8f0" stroke-width="0.4"/>
    <line x1="0" y1="0" x2="47.55" y2="-15.45" stroke="#e2e8f0" stroke-width="0.4"/>
    <line x1="0" y1="0" x2="29.39" y2="40.45" stroke="#e2e8f0" stroke-width="0.4"/>
    <line x1="0" y1="0" x2="-29.39" y2="40.45" stroke="#e2e8f0" stroke-width="0.4"/>
    <line x1="0" y1="0" x2="-47.55" y2="-15.45" stroke="#e2e8f0" stroke-width="0.4"/>
    <!-- data: 55, 30, 95, 70, 50 -->
    <polygon points="0,-27.5 14.3,-4.6 27.92,38.43 -20.57,28.32 -23.78,-7.73" fill="#05966922" stroke="#059669" stroke-width="1.5"/>
    <text font-size="7.5" fill="#64748b" text-anchor="middle" x="0" y="-53">完整性</text>
    <text font-size="7.5" fill="#64748b" text-anchor="start" x="50" y="-14">精简</text>
    <text font-size="7.5" fill="#64748b" text-anchor="start" x="32" y="49">测试</text>
    <text font-size="7.5" fill="#64748b" text-anchor="end" x="-32" y="49">隔离</text>
    <text font-size="7.5" fill="#64748b" text-anchor="end" x="-50" y="-14">克制</text>
  </g>

  <!-- dims+super -->
  <g transform="translate(630, 160)">
    <text font-size="11" font-weight="800" fill="#7c3aed" text-anchor="middle" y="-62">dims+super</text>
    <polygon points="0,-25 23.8,-7.7 14.7,20.2 -14.7,20.2 -23.8,-7.7" fill="none" stroke="#e2e8f0" stroke-width="0.6"/>
    <polygon points="0,-50 47.55,-15.45 29.39,40.45 -29.39,40.45 -47.55,-15.45" fill="none" stroke="#e2e8f0" stroke-width="0.6"/>
    <line x1="0" y1="0" x2="0" y2="-50" stroke="#e2e8f0" stroke-width="0.4"/>
    <line x1="0" y1="0" x2="47.55" y2="-15.45" stroke="#e2e8f0" stroke-width="0.4"/>
    <line x1="0" y1="0" x2="29.39" y2="40.45" stroke="#e2e8f0" stroke-width="0.4"/>
    <line x1="0" y1="0" x2="-29.39" y2="40.45" stroke="#e2e8f0" stroke-width="0.4"/>
    <line x1="0" y1="0" x2="-47.55" y2="-15.45" stroke="#e2e8f0" stroke-width="0.4"/>
    <!-- data: 85, 75, 70, 90, 85 -->
    <polygon points="0,-42.5 35.7,-11.6 20.57,28.32 -26.45,36.41 -40.42,-13.13" fill="#7c3aed33" stroke="#7c3aed" stroke-width="1.8"/>
    <text font-size="7.5" fill="#64748b" text-anchor="middle" x="0" y="-53">完整性</text>
    <text font-size="7.5" fill="#64748b" text-anchor="start" x="50" y="-14">精简</text>
    <text font-size="7.5" fill="#64748b" text-anchor="start" x="32" y="49">测试</text>
    <text font-size="7.5" fill="#64748b" text-anchor="end" x="-32" y="49">隔离</text>
    <text font-size="7.5" fill="#64748b" text-anchor="end" x="-50" y="-14">克制</text>
  </g>

  <!-- Bottom note -->
  <line x1="20" y1="232" x2="700" y2="232" stroke="#e2e8f0" stroke-width="0.5"/>
  <text font-size="9" fill="#94a3b8" x="360" y="248" text-anchor="middle">GLM-5.1 · Shopizer + TEAMMATES · 两轮对照 · dims+super 面积最大且最均匀</text>
</svg>
